<?xml version="1.0" encoding="UTF-8"?>
<svg id="Laag_1" xmlns="http://www.w3.org/2000/svg" version="1.1" viewBox="0 0 129.1 164.4">
  <!-- Generator: Adobe Illustrator 30.2.1, SVG Export Plug-In . SVG Version: 2.1.1 Build 1)  -->
  <defs>
    <style>
      .st0 {
        fill: #0a0a0a;
      }
    </style>
  </defs>
  <path class="st0" d="M95.5,164.3h-29.6c-14.7.1-24.8-9.4-31.4-21.5L1.6,81.9c-2.7-5.1-2.1-9.5,2.3-12.8s9.7-1.6,12.9,3.4l18.9,29.6c.3.5,2,1.4,2.5,1.5s2.7-1.7,2.7-2.6l.2-79.3c0-5.5,6.5-7.4,9.9-6.8s7.7,4.4,7.7,9.6v62.8c0,.9.6,2.4.8,2.9.3.8,4,.6,4-1l.2-79.2c0-5.8,4.2-9.5,8.7-10s9.6,3.3,9.6,8.5v79.9c0,.9,2,2.7,2.9,2.6s2.7-1.8,2.7-2.7l.2-66.7c0-4.7,5.9-7.1,9.1-6.8s8.3,3,8.4,7.6v65.1c0,1,1.1,2.7,1.7,3.4s4-.7,4-2.1l.2-48.9c0-5.3,5.8-7.5,9.8-7.2s8,3.9,8,9.1v88.6c-.2,18.2-15.2,34.1-33.6,34.1Z"/>
</svg>