<?xml version="1.0" encoding="UTF-8"?>
<svg id="Laag_1" xmlns="http://www.w3.org/2000/svg" version="1.1" viewBox="0 0 231.7 59.4">
  <!-- Generator: Adobe Illustrator 30.2.1, SVG Export Plug-In . SVG Version: 2.1.1 Build 1)  -->
  <defs>
    <style>
      .st0 {
        fill: #edeae6;
      }
    </style>
  </defs>
  <circle class="st0" cx="78.7" cy="29.7" r="29.7"/>
  <path class="st0" d="M30.6,31.3c-.5-.5-.8-1.1-.8-1.8s.3-1.3.8-1.8L52.2,6.3c.9-.9,1.1-2.1.7-3.3s-1.6-1.9-2.8-1.9H3c-1.7,0-3,1.4-3,3.1v51c0,1.7,1.3,3,3,3h47.1c1.2,0,2.3-.7,2.8-1.9s.2-2.4-.7-3.3c0,0-21.6-21.7-21.6-21.7Z"/>
  <path class="st0" d="M164.6,1.2h-47.8c-1.7,0-3,1.3-3,3v51.6c0,1.4,1,2.6,2.3,2.9h.7c1.1,0,2.2-.6,2.7-1.7l11.6-23.5c.4-.8,1.1-1.3,2-1.4.9-.1,1.7.2,2.3.9,0,0,.1,0,.2.2l26.9,24.7c.9.8,2.1,1,3.2.5,1.1-.5,1.8-1.6,1.8-2.7V4.2c0-1.7-1.3-3-3-3h.1Z"/>
  <path class="st0" d="M228.7,0h-26C186.3,0,173,13.3,173,29.7s13.3,29.7,29.7,29.7,14.8-3,20.1-7.8l3.2,6.2c.5,1,1.6,1.6,2.7,1.6s.5,0,.7,0c1.3-.3,2.3-1.5,2.3-2.9V3.1c0-1.7-1.3-3-3-3h0Z"/>
</svg>